<?xml version="1.0" encoding="utf-8"?><svg viewBox="0 0 83 70" xmlns="http://www.w3.org/2000/svg" xmlns:xlink="http://www.w3.org/1999/xlink"><style>:root>svg{display:none}:root>svg:target{display:block}</style><svg fill="none" viewBox="0 0 23 18" id="icn-cam" xmlns="http://www.w3.org/2000/svg"><path d="M19.187 7a1 1 0 11-2 0 1 1 0 012 0z" fill="#9564AA"/><path fill-rule="evenodd" clip-rule="evenodd" d="M6.187 10a5 5 0 1010 0 5 5 0 00-10 0zm8 0a3 3 0 11-6 0 3 3 0 016 0z" fill="#9564AA"/><path fill-rule="evenodd" clip-rule="evenodd" d="M6.124 2.845c.07-.098.15-.219.25-.381l.21-.347.085-.139C7.498.622 8.1 0 9.187 0h4c1.087 0 1.69.622 2.518 1.978l.084.139.211.347c.1.162.18.283.25.381.047.065.087.117.12.155h2.817a3 3 0 013 3v9a3 3 0 01-3 3h-16a3 3 0 01-3-3V6a3 3 0 013-3h2.816c.034-.038.074-.09.121-.155zM3.187 5a1 1 0 00-1 1v9a1 1 0 001 1h16a1 1 0 001-1V6a1 1 0 00-1-1h-3c-.664 0-1.112-.364-1.56-.987a8.42 8.42 0 01-.329-.499 82.367 82.367 0 01-.226-.372l-.073-.12C13.546 2.282 13.274 2 13.187 2h-4c-.087 0-.36.282-.812 1.022l-.073.12-.226.372c-.123.2-.225.356-.328.5C7.299 4.635 6.85 5 6.187 5h-3z" fill="#9564AA"/></svg><svg fill="none" viewBox="0 0 16 16" id="icn-comment" xmlns="http://www.w3.org/2000/svg"><path fill-rule="evenodd" clip-rule="evenodd" d="M4 14.536L8.058 12h5.275c.737 0 1.334-.597 1.334-1.333v-8c0-.737-.597-1.334-1.334-1.334H2.667c-.737 0-1.334.597-1.334 1.334v8c0 .736.597 1.333 1.334 1.333H4v2.536zm3.675-3.87L5.333 12.13v-1.463H2.667v-8h10.666v8H7.675zm-3.008-2V7.334h4.666v1.334H4.667zm0-4V6h6V4.667h-6z" fill="#9564AA"/></svg><svg fill="none" viewBox="0 0 20 18" id="icn-diamond" xmlns="http://www.w3.org/2000/svg"><path d="M10 1h5l4 5m-9-5l3 5m-3-5H5L1 6m9-5L7 6m12 0l-9 10m9-10h-6m-3 10l3-10m-3 10L1 6m9 10L7 6m6 0H7M1 6h6"/></svg><svg fill="none" viewBox="0 0 83 70" id="icn-diamond-big" xmlns="http://www.w3.org/2000/svg"><path d="M41.5 1H64l18 22.333M41.5 1L55 23.333M41.5 1H19L1 23.333M41.5 1L28 23.333m54 0L41.5 68M82 23.333H55M41.5 68L55 23.333M41.5 68L1 23.333M41.5 68L28 23.333m27 0H28m-27 0h27"/></svg><svg fill="none" viewBox="0 0 21 21" id="icn-exit" xmlns="http://www.w3.org/2000/svg"><path d="M7.48 6.51l3.293 3.293H.187v2h10.586L7.48 15.096l1.414 1.414 5.707-5.707-5.707-5.707L7.48 6.51z" fill="#9564AA"/><path d="M18.187.803h-4v2h4v16h-4v2h4a2 2 0 002-2v-16a2 2 0 00-2-2z" fill="#9564AA"/></svg><svg fill="none" viewBox="0 0 16 16" id="icn-eye" xmlns="http://www.w3.org/2000/svg"><path fill-rule="evenodd" clip-rule="evenodd" d="M8 2.667c1.818 0 3.557.953 5.178 2.52a15.52 15.52 0 012.05 2.454l.23.359-.23.36a15.52 15.52 0 01-2.05 2.453c-1.62 1.567-3.36 2.52-5.178 2.52s-3.557-.954-5.178-2.52a15.536 15.536 0 01-2.05-2.454L.542 8l.23-.36a15.536 15.536 0 012.05-2.453C4.442 3.62 6.182 2.667 8 2.667zm5.615 5.01a14.22 14.22 0 00-1.364-1.531C10.855 4.796 9.403 4 8 4c-1.403 0-2.855.796-4.25 2.146A14.217 14.217 0 002.143 8 14.218 14.218 0 003.75 9.854C5.145 11.204 6.597 12 8 12c1.403 0 2.855-.796 4.25-2.146A14.22 14.22 0 0013.857 8c-.074-.101-.154-.21-.241-.322zM5.333 8a2.667 2.667 0 105.334 0 2.667 2.667 0 00-5.334 0zm4 0a1.333 1.333 0 11-2.666 0 1.333 1.333 0 012.666 0z" fill="#9564AA"/></svg><svg fill="none" viewBox="0 0 16 16" id="icn-gift" xmlns="http://www.w3.org/2000/svg"><path fill-rule="evenodd" clip-rule="evenodd" d="M3.665 4.667c-.22-.358-.332-.798-.332-1.334 0-1.055.794-2 2-2 1.208 0 2.182.81 2.667 2.076.484-1.267 1.459-2.076 2.667-2.076 1.206 0 2 .945 2 2 0 .536-.113.976-.332 1.334h.998c.737 0 1.334.597 1.334 1.333v1.333c0 .737-.597 1.334-1.334 1.334v4.666c0 .737-.597 1.334-1.333 1.334H4a1.333 1.333 0 01-1.333-1.334V8.667a1.333 1.333 0 01-1.334-1.334V6c0-.736.597-1.333 1.334-1.333h.998zM7.333 6H2.667v1.333h4.666V6zm6 1.333H8.667V6h4.666v1.333zm-6 6V8.667H4v4.666h3.333zm4.667 0H8.667V8.667H12v4.666zM5.333 2.667c-.413 0-.666.301-.666.666 0 .836.678 1.233 2.286 1.317-.179-1.242-.845-1.983-1.62-1.983zM9 4.65c.179-1.242.845-1.983 1.62-1.983.413 0 .666.301.666.666 0 .836-.678 1.233-2.286 1.317z" fill="#9564AA"/></svg><svg fill="none" viewBox="0 0 16 16" id="icn-heart" xmlns="http://www.w3.org/2000/svg"><path fill-rule="evenodd" clip-rule="evenodd" d="M11.036 1.333c-.966 0-1.588.115-2.3.464-.265.13-.513.285-.743.467a4.2 4.2 0 00-.712-.445c-.727-.36-1.38-.486-2.311-.486C2.478 1.333.667 3.398.667 6.08c0 2.025 1.129 3.982 3.232 5.873 1.104.993 2.514 1.976 3.523 2.499L8 14.75l.578-.3c1.01-.522 2.419-1.505 3.523-2.498 2.103-1.891 3.232-3.848 3.232-5.873 0-2.653-1.828-4.736-4.297-4.747zM14 6.08c0 1.587-.943 3.22-2.79 4.882-1.009.906-2.304 1.812-3.21 2.287-.906-.475-2.201-1.38-3.21-2.287C2.944 9.3 2 7.667 2 6.08c0-1.981 1.256-3.413 2.97-3.413.74 0 1.195.087 1.72.347.31.153.584.356.821.609l.49.523.487-.528c.242-.263.52-.47.833-.623.51-.25.937-.328 1.712-.328C12.726 2.674 14 4.126 14 6.08z" fill="#9564AA"/></svg><svg fill="none" viewBox="0 0 23 22" id="icn-profile" xmlns="http://www.w3.org/2000/svg"><path fill-rule="evenodd" clip-rule="evenodd" d="M11.187 14c-2.24 0-4-1.573-4-5 0-2.244 1.58-4 4-4 2.414 0 4 1.922 4 4.2 0 3.28-1.782 4.8-4 4.8zm-2-5c0 2.27.818 3 2 3 1.178 0 2-.702 2-2.8 0-1.25-.784-2.2-2-2.2-1.266 0-2 .816-2 2z" fill="#9564AA"/><path fill-rule="evenodd" clip-rule="evenodd" d="M11.187 22c-6.075 0-11-4.925-11-11s4.925-11 11-11 11 4.925 11 11-4.925 11-11 11zm7.4-5.875a9 9 0 10-14.799 0C4.913 14.638 7.558 14 11.187 14c3.63 0 6.274.638 7.4 2.125zm-1.435 1.615c-.293-1.053-2.396-1.74-5.965-1.74-3.57 0-5.672.687-5.965 1.74A8.966 8.966 0 0011.187 20a8.966 8.966 0 005.965-2.26z" fill="#9564AA"/></svg><svg fill="none" viewBox="0 0 23 23" id="icn-settings" xmlns="http://www.w3.org/2000/svg"><path fill-rule="evenodd" clip-rule="evenodd" d="M11.187 15.804a4 4 0 110-8 4 4 0 010 8zm2-4a2 2 0 11-4 0 2 2 0 014 0z" fill="#9564AA"/><path fill-rule="evenodd" clip-rule="evenodd" d="M17.843 20.701l2.217-2.217-.78-2.837.34-.812 2.567-1.449v-3.135l-2.56-1.455-.334-.811.79-2.838-2.219-2.216-2.837.78-.81-.34-1.45-2.567H9.633l-1.454 2.56-.811.335-2.838-.792-2.215 2.215.78 2.838-.34.81-2.567 1.45v3.134l2.558 1.458.335.812-.791 2.837 2.216 2.216 2.838-.78.81.34 1.45 2.566h3.134l1.457-2.558.811-.334 2.838.79zm.197-7.271l-.872 2.082.655 2.38-.568.57-2.376-.663-2.083.86-1.222 2.144h-.804l-1.212-2.146-2.08-.872-2.382.655-.567-.567.662-2.376-.86-2.083-2.144-1.222v-.805l2.147-1.211.872-2.08-.655-2.382.566-.567 2.376.663 2.084-.86 1.22-2.146h.803l1.212 2.147 2.08.872 2.382-.655.569.568-.662 2.375.86 2.084 2.146 1.22v.803L18.04 13.43z" fill="#9564AA"/></svg></svg>